<mxfile host="app.diagrams.net" modified="2024-07-19T08:09:04.696Z" agent="Mozilla/5.0 (Macintosh; Intel Mac OS X 10.15; rv:127.0) Gecko/20100101 Firefox/127.0" etag="ha3KC2Od8Ypmoz2nDWG0" version="24.7.1" type="device">
  <diagram name="Page-1" id="tSeEg2C6BEcwPeMNgLwE">
    <mxGraphModel dx="1554" dy="1039" grid="1" gridSize="10" guides="1" tooltips="1" connect="1" arrows="1" fold="1" page="1" pageScale="1" pageWidth="850" pageHeight="1100" math="0" shadow="0">
      <root>
        <mxCell id="0" />
        <mxCell id="1" parent="0" />
        <mxCell id="dI5EF0vsMt2n0EolOHRH-5" style="edgeStyle=orthogonalEdgeStyle;rounded=0;orthogonalLoop=1;jettySize=auto;html=1;exitX=1;exitY=0.5;exitDx=0;exitDy=0;entryX=0;entryY=0.5;entryDx=0;entryDy=0;" edge="1" parent="1" source="dI5EF0vsMt2n0EolOHRH-1" target="dI5EF0vsMt2n0EolOHRH-2">
          <mxGeometry relative="1" as="geometry" />
        </mxCell>
        <mxCell id="dI5EF0vsMt2n0EolOHRH-1" value="&lt;div&gt;&lt;font face=&quot;Inconsolata&quot; data-font-src=&quot;https://fonts.googleapis.com/css?family=Inconsolata&quot;&gt;A&lt;span style=&quot;white-space: pre;&quot;&gt;&#x9;&lt;/span&gt;0.1&lt;/font&gt;&lt;/div&gt;&lt;div&gt;&lt;font face=&quot;Inconsolata&quot; data-font-src=&quot;https://fonts.googleapis.com/css?family=Inconsolata&quot;&gt;C&lt;span style=&quot;white-space: pre;&quot;&gt;&#x9;&lt;/span&gt;0.2&lt;/font&gt;&lt;/div&gt;&lt;div&gt;&lt;font data-font-src=&quot;https://fonts.googleapis.com/css?family=Inconsolata&quot; face=&quot;Inconsolata&quot;&gt;G&lt;span style=&quot;white-space: pre;&quot;&gt;&#x9;&lt;/span&gt;0.6&lt;/font&gt;&lt;/div&gt;&lt;div&gt;&lt;font data-font-src=&quot;https://fonts.googleapis.com/css?family=Inconsolata&quot; face=&quot;Inconsolata&quot;&gt;T&lt;span style=&quot;white-space: pre;&quot;&gt;&#x9;&lt;/span&gt;0.1&lt;br&gt;&lt;/font&gt;&lt;/div&gt;" style="whiteSpace=wrap;html=1;aspect=fixed;fillColor=#fff2cc;strokeColor=#d6b656;strokeWidth=3;opacity=80;" vertex="1" parent="1">
          <mxGeometry x="160" y="240" width="80" height="80" as="geometry" />
        </mxCell>
        <mxCell id="dI5EF0vsMt2n0EolOHRH-6" style="edgeStyle=orthogonalEdgeStyle;rounded=0;orthogonalLoop=1;jettySize=auto;html=1;exitX=1;exitY=0.5;exitDx=0;exitDy=0;entryX=0;entryY=0.5;entryDx=0;entryDy=0;" edge="1" parent="1" source="dI5EF0vsMt2n0EolOHRH-2" target="dI5EF0vsMt2n0EolOHRH-3">
          <mxGeometry relative="1" as="geometry" />
        </mxCell>
        <mxCell id="dI5EF0vsMt2n0EolOHRH-2" value="&lt;div&gt;&lt;font face=&quot;Inconsolata&quot; data-font-src=&quot;https://fonts.googleapis.com/css?family=Inconsolata&quot;&gt;A&lt;span style=&quot;white-space: pre;&quot;&gt;&#x9;&lt;/span&gt;0.1&lt;/font&gt;&lt;/div&gt;&lt;div&gt;&lt;font data-font-src=&quot;https://fonts.googleapis.com/css?family=Inconsolata&quot; face=&quot;Inconsolata&quot;&gt;C&lt;span style=&quot;white-space: pre;&quot;&gt;&#x9;&lt;/span&gt;0.2&lt;/font&gt;&lt;/div&gt;&lt;div&gt;&lt;font data-font-src=&quot;https://fonts.googleapis.com/css?family=Inconsolata&quot; face=&quot;Inconsolata&quot;&gt;G&lt;span style=&quot;white-space: pre;&quot;&gt;&#x9;&lt;/span&gt;0.6&lt;/font&gt;&lt;/div&gt;&lt;div&gt;&lt;font data-font-src=&quot;https://fonts.googleapis.com/css?family=Inconsolata&quot; face=&quot;Inconsolata&quot;&gt;T&lt;span style=&quot;white-space: pre;&quot;&gt;&#x9;&lt;/span&gt;0.1&lt;br&gt;&lt;/font&gt;&lt;/div&gt;" style="whiteSpace=wrap;html=1;aspect=fixed;fillColor=#fff2cc;strokeColor=#d6b656;strokeWidth=3;opacity=80;" vertex="1" parent="1">
          <mxGeometry x="320" y="240" width="80" height="80" as="geometry" />
        </mxCell>
        <mxCell id="dI5EF0vsMt2n0EolOHRH-3" value="&lt;div&gt;&lt;font face=&quot;Inconsolata&quot; data-font-src=&quot;https://fonts.googleapis.com/css?family=Inconsolata&quot;&gt;A&lt;span style=&quot;white-space: pre;&quot;&gt;&#x9;&lt;/span&gt;0.1&lt;/font&gt;&lt;/div&gt;&lt;div&gt;&lt;font data-font-src=&quot;https://fonts.googleapis.com/css?family=Inconsolata&quot; face=&quot;Inconsolata&quot;&gt;C&lt;span style=&quot;white-space: pre;&quot;&gt;&#x9;&lt;/span&gt;0.2&lt;/font&gt;&lt;/div&gt;&lt;div&gt;&lt;font data-font-src=&quot;https://fonts.googleapis.com/css?family=Inconsolata&quot; face=&quot;Inconsolata&quot;&gt;G&lt;span style=&quot;white-space: pre;&quot;&gt;&#x9;&lt;/span&gt;0.6&lt;/font&gt;&lt;/div&gt;&lt;div&gt;&lt;font data-font-src=&quot;https://fonts.googleapis.com/css?family=Inconsolata&quot; face=&quot;Inconsolata&quot;&gt;T&lt;span style=&quot;white-space: pre;&quot;&gt;&#x9;&lt;/span&gt;0.1&lt;br&gt;&lt;/font&gt;&lt;/div&gt;" style="whiteSpace=wrap;html=1;aspect=fixed;fillColor=#fff2cc;strokeColor=#d6b656;strokeWidth=3;opacity=80;" vertex="1" parent="1">
          <mxGeometry x="480" y="240" width="80" height="80" as="geometry" />
        </mxCell>
        <mxCell id="dI5EF0vsMt2n0EolOHRH-7" value="&lt;div&gt;&lt;font face=&quot;Inconsolata&quot; data-font-src=&quot;https://fonts.googleapis.com/css?family=Inconsolata&quot;&gt;ACGT&lt;/font&gt;&lt;/div&gt;&lt;div&gt;&lt;font data-font-src=&quot;https://fonts.googleapis.com/css?family=Inconsolata&quot; face=&quot;Inconsolata&quot;&gt;0.25&lt;br&gt;&lt;/font&gt;&lt;/div&gt;" style="rhombus;whiteSpace=wrap;html=1;fillColor=#dae8fc;strokeColor=#6c8ebf;strokeWidth=3;opacity=80;" vertex="1" parent="1">
          <mxGeometry x="160" y="100" width="80" height="80" as="geometry" />
        </mxCell>
        <mxCell id="dI5EF0vsMt2n0EolOHRH-8" value="&lt;div&gt;&lt;font face=&quot;Inconsolata&quot; data-font-src=&quot;https://fonts.googleapis.com/css?family=Inconsolata&quot;&gt;ACGT&lt;/font&gt;&lt;/div&gt;&lt;div&gt;&lt;font face=&quot;Inconsolata&quot; data-font-src=&quot;https://fonts.googleapis.com/css?family=Inconsolata&quot;&gt;0.25&lt;/font&gt;&lt;font face=&quot;9ip9ZgYU6Wx63PDGPGhh&quot; data-font-src=&quot;https://fonts.googleapis.com/css?family=Space+mono&quot;&gt;&lt;br&gt;&lt;/font&gt;&lt;/div&gt;" style="rhombus;whiteSpace=wrap;html=1;fillColor=#dae8fc;strokeColor=#6c8ebf;strokeWidth=3;opacity=80;" vertex="1" parent="1">
          <mxGeometry x="320" y="100" width="80" height="80" as="geometry" />
        </mxCell>
        <mxCell id="dI5EF0vsMt2n0EolOHRH-9" value="&lt;div align=&quot;center&quot;&gt;&lt;font face=&quot;Inconsolata&quot; data-font-src=&quot;https://fonts.googleapis.com/css?family=Inconsolata&quot;&gt;ACGT&lt;/font&gt;&lt;/div&gt;&lt;div align=&quot;center&quot;&gt;&lt;font data-font-src=&quot;https://fonts.googleapis.com/css?family=Inconsolata&quot; face=&quot;Inconsolata&quot;&gt;0.25&lt;br&gt;&lt;/font&gt;&lt;/div&gt;" style="rhombus;whiteSpace=wrap;html=1;fillColor=#dae8fc;strokeColor=#6c8ebf;strokeWidth=3;opacity=80;" vertex="1" parent="1">
          <mxGeometry x="480" y="100" width="80" height="80" as="geometry" />
        </mxCell>
        <mxCell id="dI5EF0vsMt2n0EolOHRH-10" value="&lt;font data-font-src=&quot;https://fonts.googleapis.com/css?family=Inconsolata&quot; face=&quot;Inconsolata&quot;&gt;1.0&lt;/font&gt;" style="ellipse;whiteSpace=wrap;html=1;aspect=fixed;fillColor=#f8cecc;strokeColor=#b85450;strokeWidth=3;opacity=80;" vertex="1" parent="1">
          <mxGeometry x="170" y="380" width="60" height="60" as="geometry" />
        </mxCell>
        <mxCell id="dI5EF0vsMt2n0EolOHRH-14" value="&lt;font data-font-src=&quot;https://fonts.googleapis.com/css?family=Inconsolata&quot; face=&quot;Inconsolata&quot;&gt;Start&lt;/font&gt;" style="rounded=1;whiteSpace=wrap;html=1;fillColor=#f5f5f5;fontColor=#333333;strokeColor=#000000;strokeWidth=2;perimeterSpacing=0;opacity=60;" vertex="1" parent="1">
          <mxGeometry x="40" y="260" width="40" height="40" as="geometry" />
        </mxCell>
        <mxCell id="dI5EF0vsMt2n0EolOHRH-15" value="&lt;font data-font-src=&quot;https://fonts.googleapis.com/css?family=Inconsolata&quot; face=&quot;Inconsolata&quot;&gt;End&lt;/font&gt;" style="rounded=1;whiteSpace=wrap;html=1;fillColor=#f5f5f5;fontColor=#333333;strokeColor=#666666;strokeWidth=2;opacity=80;shadow=0;glass=0;" vertex="1" parent="1">
          <mxGeometry x="640" y="260" width="40" height="40" as="geometry" />
        </mxCell>
        <mxCell id="dI5EF0vsMt2n0EolOHRH-18" value="" style="endArrow=classic;html=1;rounded=0;exitX=0.956;exitY=0.034;exitDx=0;exitDy=0;exitPerimeter=0;" edge="1" parent="1" source="dI5EF0vsMt2n0EolOHRH-14" target="dI5EF0vsMt2n0EolOHRH-7">
          <mxGeometry width="50" height="50" relative="1" as="geometry">
            <mxPoint x="80" y="260" as="sourcePoint" />
            <mxPoint x="130" y="210" as="targetPoint" />
          </mxGeometry>
        </mxCell>
        <mxCell id="dI5EF0vsMt2n0EolOHRH-19" value="" style="endArrow=classic;html=1;rounded=0;exitX=1;exitY=0.5;exitDx=0;exitDy=0;entryX=0;entryY=0.5;entryDx=0;entryDy=0;" edge="1" parent="1" source="dI5EF0vsMt2n0EolOHRH-14" target="dI5EF0vsMt2n0EolOHRH-1">
          <mxGeometry width="50" height="50" relative="1" as="geometry">
            <mxPoint x="90" y="270" as="sourcePoint" />
            <mxPoint x="190" y="170" as="targetPoint" />
          </mxGeometry>
        </mxCell>
        <mxCell id="dI5EF0vsMt2n0EolOHRH-20" value="" style="endArrow=classic;html=1;rounded=0;exitX=0.955;exitY=0.955;exitDx=0;exitDy=0;exitPerimeter=0;" edge="1" parent="1" source="dI5EF0vsMt2n0EolOHRH-14" target="dI5EF0vsMt2n0EolOHRH-10">
          <mxGeometry width="50" height="50" relative="1" as="geometry">
            <mxPoint x="80" y="300" as="sourcePoint" />
            <mxPoint x="170" y="290" as="targetPoint" />
          </mxGeometry>
        </mxCell>
        <mxCell id="dI5EF0vsMt2n0EolOHRH-21" value="&lt;font data-font-src=&quot;https://fonts.googleapis.com/css?family=Inconsolata&quot; face=&quot;Inconsolata&quot;&gt;1.0&lt;/font&gt;" style="ellipse;whiteSpace=wrap;html=1;aspect=fixed;strokeWidth=3;fillColor=#f8cecc;strokeColor=#b85450;opacity=80;" vertex="1" parent="1">
          <mxGeometry x="330" y="380" width="60" height="60" as="geometry" />
        </mxCell>
        <mxCell id="dI5EF0vsMt2n0EolOHRH-22" value="&lt;font data-font-src=&quot;https://fonts.googleapis.com/css?family=Inconsolata&quot; face=&quot;Inconsolata&quot;&gt;1.0&lt;/font&gt;" style="ellipse;whiteSpace=wrap;html=1;aspect=fixed;fillColor=#f8cecc;strokeColor=#b85450;strokeWidth=3;opacity=80;" vertex="1" parent="1">
          <mxGeometry x="490" y="380" width="60" height="60" as="geometry" />
        </mxCell>
        <mxCell id="dI5EF0vsMt2n0EolOHRH-23" value="" style="endArrow=classic;html=1;rounded=0;exitX=1;exitY=0.5;exitDx=0;exitDy=0;entryX=0;entryY=0.5;entryDx=0;entryDy=0;" edge="1" parent="1" target="dI5EF0vsMt2n0EolOHRH-21">
          <mxGeometry width="50" height="50" relative="1" as="geometry">
            <mxPoint x="230" y="409.5" as="sourcePoint" />
            <mxPoint x="310" y="409.5" as="targetPoint" />
          </mxGeometry>
        </mxCell>
        <mxCell id="dI5EF0vsMt2n0EolOHRH-24" value="" style="endArrow=classic;html=1;rounded=0;exitX=1;exitY=0.5;exitDx=0;exitDy=0;entryX=0;entryY=0.5;entryDx=0;entryDy=0;" edge="1" parent="1" target="dI5EF0vsMt2n0EolOHRH-22">
          <mxGeometry width="50" height="50" relative="1" as="geometry">
            <mxPoint x="390" y="409.5" as="sourcePoint" />
            <mxPoint x="470" y="409.5" as="targetPoint" />
          </mxGeometry>
        </mxCell>
        <mxCell id="dI5EF0vsMt2n0EolOHRH-25" value="" style="endArrow=classic;html=1;rounded=0;exitX=1;exitY=0;exitDx=0;exitDy=0;entryX=0;entryY=0.75;entryDx=0;entryDy=0;" edge="1" parent="1" source="dI5EF0vsMt2n0EolOHRH-10" target="dI5EF0vsMt2n0EolOHRH-2">
          <mxGeometry width="50" height="50" relative="1" as="geometry">
            <mxPoint x="220" y="390" as="sourcePoint" />
            <mxPoint x="320" y="290" as="targetPoint" />
          </mxGeometry>
        </mxCell>
        <mxCell id="dI5EF0vsMt2n0EolOHRH-26" value="" style="endArrow=classic;html=1;rounded=0;exitX=1;exitY=0;exitDx=0;exitDy=0;entryX=0;entryY=0.75;entryDx=0;entryDy=0;" edge="1" parent="1">
          <mxGeometry width="50" height="50" relative="1" as="geometry">
            <mxPoint x="381" y="389" as="sourcePoint" />
            <mxPoint x="480" y="300" as="targetPoint" />
          </mxGeometry>
        </mxCell>
        <mxCell id="dI5EF0vsMt2n0EolOHRH-27" value="" style="endArrow=classic;html=1;rounded=0;exitX=1;exitY=0;exitDx=0;exitDy=0;entryX=0.041;entryY=0.962;entryDx=0;entryDy=0;entryPerimeter=0;" edge="1" parent="1" target="dI5EF0vsMt2n0EolOHRH-15">
          <mxGeometry width="50" height="50" relative="1" as="geometry">
            <mxPoint x="541" y="389" as="sourcePoint" />
            <mxPoint x="640" y="300" as="targetPoint" />
          </mxGeometry>
        </mxCell>
        <mxCell id="dI5EF0vsMt2n0EolOHRH-28" value="" style="endArrow=classic;html=1;rounded=0;exitX=0.5;exitY=0;exitDx=0;exitDy=0;entryX=0.5;entryY=1;entryDx=0;entryDy=0;" edge="1" parent="1" source="dI5EF0vsMt2n0EolOHRH-1" target="dI5EF0vsMt2n0EolOHRH-7">
          <mxGeometry width="50" height="50" relative="1" as="geometry">
            <mxPoint x="401" y="409" as="sourcePoint" />
            <mxPoint x="500" y="320" as="targetPoint" />
          </mxGeometry>
        </mxCell>
        <mxCell id="dI5EF0vsMt2n0EolOHRH-29" value="" style="endArrow=classic;html=1;rounded=0;exitX=0.5;exitY=0;exitDx=0;exitDy=0;entryX=0.5;entryY=1;entryDx=0;entryDy=0;" edge="1" parent="1">
          <mxGeometry width="50" height="50" relative="1" as="geometry">
            <mxPoint x="359.5" y="240" as="sourcePoint" />
            <mxPoint x="359.5" y="180" as="targetPoint" />
          </mxGeometry>
        </mxCell>
        <mxCell id="dI5EF0vsMt2n0EolOHRH-30" value="" style="endArrow=classic;html=1;rounded=0;exitX=0.5;exitY=0;exitDx=0;exitDy=0;entryX=0.5;entryY=1;entryDx=0;entryDy=0;" edge="1" parent="1">
          <mxGeometry width="50" height="50" relative="1" as="geometry">
            <mxPoint x="519.5" y="240" as="sourcePoint" />
            <mxPoint x="519.5" y="180" as="targetPoint" />
          </mxGeometry>
        </mxCell>
        <mxCell id="dI5EF0vsMt2n0EolOHRH-31" style="edgeStyle=orthogonalEdgeStyle;rounded=0;orthogonalLoop=1;jettySize=auto;html=1;exitX=1;exitY=0.5;exitDx=0;exitDy=0;entryX=0;entryY=0.5;entryDx=0;entryDy=0;" edge="1" parent="1">
          <mxGeometry relative="1" as="geometry">
            <mxPoint x="560" y="279.5" as="sourcePoint" />
            <mxPoint x="640" y="279.5" as="targetPoint" />
            <Array as="points">
              <mxPoint x="590" y="279.5" />
              <mxPoint x="590" y="279.5" />
            </Array>
          </mxGeometry>
        </mxCell>
        <mxCell id="dI5EF0vsMt2n0EolOHRH-32" value="" style="endArrow=classic;html=1;rounded=0;exitX=1;exitY=0.75;exitDx=0;exitDy=0;" edge="1" parent="1" source="dI5EF0vsMt2n0EolOHRH-1" target="dI5EF0vsMt2n0EolOHRH-21">
          <mxGeometry width="50" height="50" relative="1" as="geometry">
            <mxPoint x="240" y="320" as="sourcePoint" />
            <mxPoint x="338" y="410" as="targetPoint" />
          </mxGeometry>
        </mxCell>
        <mxCell id="dI5EF0vsMt2n0EolOHRH-33" value="" style="endArrow=classic;html=1;rounded=0;exitX=1.005;exitY=0.773;exitDx=0;exitDy=0;exitPerimeter=0;" edge="1" parent="1" source="dI5EF0vsMt2n0EolOHRH-2">
          <mxGeometry width="50" height="50" relative="1" as="geometry">
            <mxPoint x="400" y="310" as="sourcePoint" />
            <mxPoint x="495" y="393" as="targetPoint" />
          </mxGeometry>
        </mxCell>
        <mxCell id="dI5EF0vsMt2n0EolOHRH-35" value="" style="curved=1;endArrow=classic;html=1;rounded=0;exitX=0;exitY=0;exitDx=0;exitDy=0;entryX=1;entryY=0;entryDx=0;entryDy=0;" edge="1" parent="1" source="dI5EF0vsMt2n0EolOHRH-7" target="dI5EF0vsMt2n0EolOHRH-7">
          <mxGeometry width="50" height="50" relative="1" as="geometry">
            <mxPoint x="220" y="160" as="sourcePoint" />
            <mxPoint x="270" y="110" as="targetPoint" />
            <Array as="points">
              <mxPoint x="160" y="90" />
              <mxPoint x="170" y="50" />
              <mxPoint x="200" y="40" />
              <mxPoint x="230" y="50" />
              <mxPoint x="240" y="90" />
            </Array>
          </mxGeometry>
        </mxCell>
        <mxCell id="dI5EF0vsMt2n0EolOHRH-37" value="" style="curved=1;endArrow=classic;html=1;rounded=0;exitX=0;exitY=0;exitDx=0;exitDy=0;entryX=1;entryY=0;entryDx=0;entryDy=0;" edge="1" parent="1">
          <mxGeometry width="50" height="50" relative="1" as="geometry">
            <mxPoint x="340" y="120" as="sourcePoint" />
            <mxPoint x="380" y="120" as="targetPoint" />
            <Array as="points">
              <mxPoint x="320" y="90" />
              <mxPoint x="330" y="50" />
              <mxPoint x="360" y="40" />
              <mxPoint x="390" y="50" />
              <mxPoint x="400" y="90" />
            </Array>
          </mxGeometry>
        </mxCell>
        <mxCell id="dI5EF0vsMt2n0EolOHRH-38" value="" style="curved=1;endArrow=classic;html=1;rounded=0;exitX=0;exitY=0;exitDx=0;exitDy=0;entryX=1;entryY=0;entryDx=0;entryDy=0;" edge="1" parent="1">
          <mxGeometry width="50" height="50" relative="1" as="geometry">
            <mxPoint x="500" y="120" as="sourcePoint" />
            <mxPoint x="540" y="120" as="targetPoint" />
            <Array as="points">
              <mxPoint x="480" y="90" />
              <mxPoint x="490" y="50" />
              <mxPoint x="520" y="40" />
              <mxPoint x="550" y="50" />
              <mxPoint x="560" y="90" />
            </Array>
          </mxGeometry>
        </mxCell>
        <mxCell id="dI5EF0vsMt2n0EolOHRH-39" value="" style="endArrow=classic;html=1;rounded=0;entryX=0;entryY=0.25;entryDx=0;entryDy=0;" edge="1" parent="1" source="dI5EF0vsMt2n0EolOHRH-7" target="dI5EF0vsMt2n0EolOHRH-2">
          <mxGeometry width="50" height="50" relative="1" as="geometry">
            <mxPoint x="222" y="160" as="sourcePoint" />
            <mxPoint x="320" y="250" as="targetPoint" />
          </mxGeometry>
        </mxCell>
        <mxCell id="dI5EF0vsMt2n0EolOHRH-40" value="" style="endArrow=classic;html=1;rounded=0;entryX=0;entryY=0.25;entryDx=0;entryDy=0;" edge="1" parent="1">
          <mxGeometry width="50" height="50" relative="1" as="geometry">
            <mxPoint x="380" y="160" as="sourcePoint" />
            <mxPoint x="480" y="260" as="targetPoint" />
          </mxGeometry>
        </mxCell>
        <mxCell id="dI5EF0vsMt2n0EolOHRH-41" value="" style="endArrow=classic;html=1;rounded=0;entryX=0.069;entryY=0.039;entryDx=0;entryDy=0;entryPerimeter=0;" edge="1" parent="1" target="dI5EF0vsMt2n0EolOHRH-15">
          <mxGeometry width="50" height="50" relative="1" as="geometry">
            <mxPoint x="540" y="160" as="sourcePoint" />
            <mxPoint x="640" y="260" as="targetPoint" />
          </mxGeometry>
        </mxCell>
      </root>
    </mxGraphModel>
  </diagram>
</mxfile>
